<svg width="65" height="65" viewBox="0 0 65 65" fill="none" xmlns="http://www.w3.org/2000/svg">
<path d="M18.2812 54.8438C19.4031 54.8438 20.3125 53.9343 20.3125 52.8125C20.3125 51.6907 19.4031 50.7812 18.2812 50.7812C17.1594 50.7812 16.25 51.6907 16.25 52.8125C16.25 53.9343 17.1594 54.8438 18.2812 54.8438Z" fill="black"/>
<path d="M52.8125 44.6875H42.6562V48.75H52.8125V56.875H12.1875V48.75H30.4688C32.7031 48.75 34.5312 46.9219 34.5312 44.6875V26.0609L39.7922 31.3219L42.6562 28.4375L32.5 18.2812L22.3438 28.4375L25.2078 31.3016L30.4688 26.0609V44.6875H12.1875C9.95312 44.6875 8.125 46.5156 8.125 48.75V56.875C8.125 59.1094 9.95312 60.9375 12.1875 60.9375H52.8125C55.0469 60.9375 56.875 59.1094 56.875 56.875V48.75C56.875 46.5156 55.0469 44.6875 52.8125 44.6875Z" fill="black"/>
<path d="M48.2422 16.3516C46.4547 9.24219 39.9547 4.0625 32.5 4.0625C25.0453 4.0625 18.5453 9.24219 16.7578 16.3516C10.7453 17.1031 6.09375 22.2422 6.09375 28.4375C6.09375 35.1609 11.5578 40.625 18.2812 40.625H22.3438V36.5625H18.2812C13.7922 36.5625 10.1562 32.9266 10.1562 28.4375C10.1562 23.9891 13.7516 20.3734 18.1797 20.3125L20.1906 20.3531L20.4344 18.5656C21.3078 12.6141 26.4875 8.125 32.5 8.125C38.5125 8.125 43.6922 12.6141 44.5453 18.5859L44.7891 20.3734L46.5766 20.3328L46.8406 20.3125C48.9743 20.3445 51.0098 21.2146 52.5072 22.7349C54.0047 24.2552 54.844 26.3036 54.8438 28.4375C54.8437 32.9266 51.2078 36.5625 46.7188 36.5625H42.6562V40.625H46.7188C53.4422 40.625 58.9062 35.1609 58.9062 28.4375C58.9062 22.2422 54.2547 17.1031 48.2422 16.3516Z" fill="black"/>
</svg>
