<svg width="64" height="64" viewBox="0 0 64 64" fill="none" xmlns="http://www.w3.org/2000/svg">
<path d="M8 26.6667C8 16.6107 8 11.5814 11.1253 8.45871C14.2507 5.33604 19.2773 5.33337 29.3333 5.33337H34.6667C44.7227 5.33337 49.752 5.33337 52.8747 8.45871C55.9973 11.584 56 16.6107 56 26.6667V37.3334C56 47.3894 56 52.4187 52.8747 55.5414C49.7493 58.664 44.7227 58.6667 34.6667 58.6667H29.3333C19.2773 58.6667 14.248 58.6667 11.1253 55.5414C8.00267 52.416 8 47.3894 8 37.3334V26.6667Z" stroke="black" stroke-width="3"/>
<path d="M21.3333 26.6667H42.6666M21.3333 37.3334H34.6666" stroke="black" stroke-width="3" stroke-linecap="round"/>
</svg>
