<svg width="65" height="65" viewBox="0 0 65 65" fill="none" xmlns="http://www.w3.org/2000/svg">
<path d="M3.90924 18.4414C2.2796 18.1582 2.2796 15.8182 3.90924 15.535C6.79372 15.0305 9.46303 13.6796 11.5778 11.6541C13.6926 9.62862 15.1573 7.02004 15.7857 4.15999L15.8832 3.70963C16.236 2.10321 18.5296 2.08928 18.901 3.70035L19.0171 4.22035C19.6645 7.06955 21.1401 9.66362 23.2584 11.6761C25.3766 13.6886 28.0428 15.0296 30.9214 15.5303C32.5603 15.8089 32.5603 18.1628 30.9214 18.4507C28.0426 18.9503 25.3758 20.2902 23.2567 22.3019C21.1377 24.3136 19.661 26.9071 19.0125 29.7561L18.8917 30.2807C18.525 31.8871 16.2314 31.8778 15.8785 30.2668L15.7857 29.8164C15.1566 26.9551 13.6905 24.3456 11.574 22.32C9.45745 20.2944 6.78613 18.9443 3.89996 18.4414M32.1564 61.295L18.2278 62.5021L19.435 48.5736L48.4064 19.7878C48.8388 19.3456 49.3552 18.9943 49.9252 18.7544C50.4953 18.5145 51.1076 18.3909 51.726 18.3909C52.3445 18.3909 52.9568 18.5145 53.5268 18.7544C54.0969 18.9943 54.6133 19.3456 55.0457 19.7878L60.9421 25.7307C61.3773 26.1623 61.7227 26.6758 61.9584 27.2416C62.1941 27.8074 62.3155 28.4142 62.3155 29.0271C62.3155 29.64 62.1941 30.2469 61.9584 30.8127C61.7227 31.3784 61.3773 31.8919 60.9421 32.3236L32.1564 61.295Z" stroke="black" stroke-width="3" stroke-linecap="round" stroke-linejoin="round"/>
</svg>
